<svg width="743" height="1183" viewBox="0 0 743 1183" fill="none" xmlns="http://www.w3.org/2000/svg">
<path d="M38.1714 918.913L170.671 616.413C177.771 594.413 195.771 550.413 211.371 550.413C226.971 550.413 279.071 521.213 303.171 506.613C297.371 432.713 286.271 274.813 287.971 234.813C290.171 184.713 324.871 93.213 344.471 76.713C364.071 60.113 408.071 51.613 427.671 60.713C447.271 69.813 484.171 111.313 536.871 147.713C578.971 176.813 624.271 428.313 641.671 550.313C651.771 559.413 677.271 581.213 698.171 595.813C719.071 610.413 720.271 661.413 718.271 685.013L685.071 918.813C674.171 958.313 647.771 1046.61 629.171 1084.81C611.771 1084.81 618.271 1130.31 611.771 1148.51C606.571 1163.11 573.371 1154.61 557.471 1148.51L579.171 1169.01C579.171 1169.01 459.271 1185.81 387.371 1181.81C335.671 1178.91 254.871 1166.01 192.171 1148.01C143.971 1134.21 170.871 1084.81 170.871 1084.81C142.671 1086.31 80.9714 1088.41 60.0714 1084.81C33.9714 1080.31 18.7714 1018.81 14.4714 989.213C10.8714 965.813 28.7715 932.613 38.1714 918.913Z" fill="white"/>
<path d="M235.8 745.1C234.7 731.8 219 740.5 211.3 746.5C210.7 738.6 205.5 723.5 189.3 726.3C173.1 729.1 191.3 746.9 202.4 755.4C191.9 752.4 171.9 750.7 176.5 767.1C181 783.5 195.7 769.2 202.4 760C202.3 767.6 204.4 782.5 213.8 782C223.2 781.4 216 767.1 211.3 760C219.9 760.5 236.9 758.4 235.8 745.1Z" fill="#60EFDE"/>
<path d="M292.3 464.8C292.3 464.8 233.1 317.4 261.9 229.3C290.7 141.2 287.5 54.7 365.9 40.3C444.3 25.9 497 -23.8 537 16.3C577 56.4 644.2 224.5 644.2 293.4C644.2 362.3 689 530.5 689 530.5C689 530.5 575.4 538.5 572.2 460C569 381.5 583.4 349.5 575.4 274.2C567.4 198.9 557.8 114 516.2 134.8C474.6 155.6 501.8 157.2 442.6 165.2C383.4 173.2 377 190.9 377 190.9C377 190.9 388.2 160.5 380.2 133.2C372.2 106 346.6 90 337 110.8C327.4 131.6 274.6 198.9 300.2 259.8C325.8 320.7 372.2 359.1 378.6 387.9C385 416.7 345 474.4 345 474.4L292.3 464.8Z" fill="#FFE9C2"/>
<path d="M441 28.3C438.9 29.4 436.8 30.5 434.8 31.7C411.6 44.7 395.3 59.3 394.2 68.1C394 69.5 393.4 74.2 405.1 77.1C410.2 78.4 415.2 79.8 420 81.4C428 66.7 434.6 50.6 437.1 42.8C437.6 41.4 438.1 40.1 438.4 39C440.1 34.4 441.2 31 441 28.3ZM366.8 139.1C371.9 147.4 368.7 163.8 366.3 172.7C369.3 172.2 374.3 171.4 382.5 169.8C403.5 165.6 408.7 165 419.1 163.9C419.9 163.7 420.7 163.7 421.7 163.6L432.3 124.5C432.5 124.2 432.6 123.7 432.8 123.4C436 118.3 440 113.1 445 114.6C449.8 115.9 451.6 122 451.6 136.9C451.6 147.5 452.4 156.8 452.7 161.6C470.1 160.6 497.8 153.3 514.3 148.5C485 122.9 456.7 103.2 423.9 91.2C416.2 104.3 407.3 116 397.8 119.9C390.1 123 378.3 130 366.8 139.1ZM410 11.5C392.9 11.5 373.1 20 356.3 28.5C331.8 40.8 306.6 90.5 294.4 133.4C289.4 150.5 291 182.4 296.3 217.2C297.7 214 299 211 300.5 207.7C315.1 174.7 327.5 146.2 348 136.6C352.8 134.4 356.8 133.6 360.2 134.4C372.7 124 386.1 116 394.6 112.5C401.5 109.6 409.2 100 415.9 88.5C411.7 87.2 407.4 85.9 403.1 84.8C386.9 80.8 385.7 72 386.1 67C386.6 62.5 391.5 46.5 430.9 24.6C432.8 23.5 434.7 22.5 436.8 21.4C434.7 19.6 431.8 17.9 427.7 15.6C422.5 12.6 416.4 11.5 410 11.5ZM360.7 144.4C346.9 156.7 335.4 172 336.2 186.4C338.1 222.3 350.1 332 379.9 363.2C382.8 366.2 385.7 369.3 388.4 372.2C414.3 399.8 427.4 413.7 451.3 407.1C463.5 403.7 480.9 387.9 496.1 373.9C518.2 353.7 535.8 337.7 546.2 347C551.5 351.8 559.3 361.3 567 372.5C570 360.6 572.9 349.4 574.8 342.5C580.4 321.8 562.2 302.9 545.8 290.8C539.4 286 536 280.4 535.7 274.3C535.2 261.8 548 250.4 557.5 242.1C559.4 240.3 561.3 238.6 562.9 237.1C550.9 227.5 544.7 207.1 538.1 185.7C535.9 178.3 533.6 171 531.1 163.9C530 162.8 528.9 161.8 527.7 160.9C525.5 158.8 523.2 156.9 521.1 155C504.5 160 468.6 170.1 448.8 170.1C446.7 170.1 445.1 168.7 444.8 166.6C444.8 166.1 443.2 153.3 443.2 137.3C443.2 129.9 442.7 126.1 442.2 124.2C441.6 125 440.8 126.1 439.6 127.7L428.6 168.7C428.1 170.3 426.8 171.4 425.2 171.6C423.3 171.8 421.5 172.1 419.9 172.2C409.7 173.3 404.5 173.8 383.9 178C375.1 179.8 368.7 180.9 364.9 181.4C361.9 181.7 358.7 182 357.2 179.3C356.7 178.3 356.6 177.2 356.9 176.1C360.2 165.9 363.3 150.4 360.7 144.4ZM570.1 392.4C566.7 406 564 418 563.2 422.7C562.7 426.5 575.4 435.5 581.6 439.7C583.7 441.1 585.8 442.6 587.5 443.9C587.8 441.5 587.5 435.7 587.3 433.6C586.6 423.5 579.1 407.4 570.1 392.4ZM593.8 449.2C594.3 449.8 594.9 450.3 595.2 451C596.5 449.9 597.9 448.8 599.4 447.6C605.8 442.5 613 436.7 614.8 433.2C618.6 425.5 614.8 361.8 603.3 322.4C600.1 311.5 597.2 303.5 595 296.9C589.1 280.2 586.7 273.4 596.1 262.5C598.2 260.1 597.4 248.6 579.5 221.5C569.6 206.6 556.6 190.6 543.7 176.6C544.3 178.8 545 181.1 545.8 183.2C552.2 204.3 558.9 226.3 570.8 232.7C571.8 233.2 572.6 234.1 572.7 235.3C572.9 236.4 572.7 237.5 572.2 238.5C570.4 241.2 567.1 244.3 562.8 248C554.6 255.2 543.4 265.1 543.8 273.9C544 277.6 546.2 280.9 550.7 284.3C583.8 309.1 586.4 330.9 582.5 344.7C580.3 352.7 576.6 367.1 572.9 381.7C584.4 399.8 594.5 420.3 595.5 433.1C595.9 440.6 596 445.9 593.8 449.2ZM470.1 459.7C476.5 462.4 497.6 457 513.1 452.8C526.7 449.3 540.6 445.6 552.3 444.3C541.6 440.8 532.3 440.1 525.7 443.3C507.9 452.1 490.7 455.5 479.2 457.7C476 458.4 472.5 459 470.1 459.7ZM602.1 460.8C620.3 472.5 640 487.2 659.7 502.8L643.7 473.8C643.2 473 643.1 472.2 643.2 471.4C647 439.7 642.7 428 639.2 418.5C638.4 416.3 637.6 414.2 637 412.1C627.2 378 630.1 352.8 632.2 334.4C633 327.7 633.6 321.7 633.6 316.5C633.6 313.8 633.6 309.9 633.8 305.3C634.3 275.8 635.1 214.6 624.5 193.3C621.5 187.2 617.9 181.3 614.7 175.7C604 157.6 592.9 138.9 590.5 105.2C589.1 85.2 577.4 60.8 559.9 41.8C541.3 21.5 519.4 9.6 499.9 9.6C487.1 9.6 467.9 15.2 448.2 24.5C449.8 29.9 447.9 35.4 445.8 41.5C445.3 42.6 445 43.9 444.5 45.3C444.3 45.6 437.6 65 427.4 84.1C465.8 98.5 496.5 122.4 522.9 145.8C525.6 145 527.4 144.4 527.4 144.4C529.3 143.8 531.4 144.7 532.2 146.5C534.3 150.5 536 154.8 537.8 159.5C570.6 191.2 616.3 251.6 602.1 267.9C595.9 275.1 596.7 278 602.4 294.3C604.8 300.9 607.7 309 610.9 320.1C621.5 356.1 627.9 424.7 621.8 436.7C619.2 441.8 612.2 447.4 604.2 453.8C602.4 455.1 600.7 456.5 598.9 458C600 458.9 601 459.8 602.1 460.8ZM307.5 462.4C303.2 471.7 298.7 481.8 294.2 491.1C287.5 505.5 287.5 522.7 289.2 536.4C289.5 531.8 289.8 526.9 289.8 523.1C289.8 514.6 299.9 499.1 314 478.2C319.3 470.5 325.5 461.2 327.8 456.7C324.2 456.8 317.4 458.4 307.5 462.4ZM347.8 445.2C348.9 460.3 351.8 500.9 350.5 534.3C349.7 553.5 359.8 578.3 370.7 601.9C372.8 595.8 375.3 589.7 378.2 583.6C389.9 558.8 404.9 518.1 409.9 491.7C411.8 481.3 414.2 473.8 419.8 470.1C426 466.1 434.2 468.2 447.5 471.5L451.5 472.5C474.1 478.1 513.7 542.3 528.6 567.6C530.7 558 533.9 543.6 537.9 532.7C541.6 522.8 551.7 509 561.4 495.7C568.9 485.6 576.6 475 577.9 470.6C578.9 467.1 581.6 463.4 585.3 459.7C580.5 456.8 575.7 454.3 571.1 452C568.2 451.8 564.9 451.7 561 451.7C549 451.7 531.9 456.2 515.4 460.5C488.5 467.5 471.6 471.6 464.1 465.1C463 464.1 459.6 461.3 460.7 457.4C462 452.8 467.3 451.8 478.1 449.7C489.1 447.6 505.8 444.4 522.6 435.9C534.8 429.8 552.5 433.8 573.5 443.9C573.8 443.9 574.3 443.9 574.6 444.1C564.4 436.9 554.6 429.4 555.7 421.4C556.5 415.5 560.3 399.5 564.5 382.8C555.9 369.7 546.7 358.1 541 352.8C535.9 348.3 516 366.4 501.7 379.6C485.1 394.8 467.8 410.7 453.7 414.5C425.2 422.3 409.2 405.5 383 377.5C380.3 374.6 377.6 371.7 374.7 368.7C336.8 329.5 328.5 188.3 328.3 186.9C327.5 172.6 336.3 158.2 348.1 145.7C332.1 155.8 320.7 181.4 307.8 210.9C304.9 217.6 301.9 224.5 298.7 231.4C307.2 279.8 321.9 330.4 335.5 352.7C349.3 375.1 362.2 386.3 369.3 392.3C374.4 396.6 377.1 399 376.7 402.7C376.2 405.9 373.2 407.5 372.2 408C367.6 410.4 360.7 407.8 352.2 402.4C371.2 420.2 397.5 443.4 406.6 451.1C410 454 408.8 456.7 408.4 457.5C406.8 460.5 405.2 463.3 347.8 445.2ZM372.2 624.2C368.2 639.4 365.8 654.6 363.2 669.4C361.9 677.1 361 684.5 360.2 691.5C360 693.1 359.7 694.7 359.6 696.3C374 686.4 387.4 676.9 387.4 665.5C387.3 657.2 380.2 641.3 372.2 624.2ZM637.9 631.4C628.3 646.9 609.7 677.5 596.2 701.2C590 712.3 588.8 721.5 590.3 730.7C592.7 727.7 595.3 724.6 598 721.4C615.4 699.9 635.3 675.7 636.9 663.6C638.6 650.6 638.4 639.2 637.9 631.4ZM348.7 713.9C342.1 718.9 336.2 724.3 332.1 730.4C324.1 742.1 325.2 749.3 329.7 761.8C331.1 758.8 332.7 755.9 334.3 752.8C336.1 749.4 337.8 746.1 339.6 742.4C344.2 733.2 347 723.8 348.7 713.9ZM56.1999 782.3V782.5C56.1999 788.3 58.8999 793.4 61.5999 796.9C63.6999 792.3 65.8999 787.8 67.9999 783.3C62.0999 781.8 57.5999 781.3 56.1999 782.3ZM41.3999 809.5C42.9999 811.7 46.4999 815.3 51.1999 819.6C52.9999 815.8 54.5999 812.1 56.2999 808.4C49.7999 808.2 43.7999 808.7 41.3999 809.5ZM52.1999 837C55.0999 838 58.7999 839.4 63.1999 841.5C59.9999 838.8 56.9999 835.9 53.7999 833.2C53.2999 834.3 52.7999 835.6 52.1999 837ZM587.1 747.8C577.8 759.8 570.6 770.5 569.7 776.6C568.6 784.6 561.2 811.5 552.3 842.9C559.8 838.6 566.4 835.1 572.3 832C595.7 819.7 603.7 815.5 600.1 789.4C598.5 776.7 594.3 766.5 590.3 756.4C589.1 753.4 588 750.7 587.1 747.8ZM319.8 872.9H340.8C341.8 869.1 343.4 856.1 337.8 818.3C335.6 803.6 332.4 792.2 329.2 782.7C326.2 791 323.6 800.2 321.7 811.9C317.9 835.9 319.1 863.3 319.8 872.9ZM81.0999 916.3C88.5999 918.4 122 915.5 133.4 914.5C156 912.6 180.3 910 203.8 907.6C223.6 905.5 243.6 903.4 263.3 901.7C264.9 898 266.2 895 267.1 892.4L206 895.3C204.9 895.3 203.9 895 203.1 894.2C202.3 893.4 201.8 892.4 201.8 891.3C201.8 890.7 199.9 827.4 174.8 809.6L169.4 805.8C145.6 788.8 116 767.8 99.7999 771.8C96.7999 772.6 92.7999 774 91.7999 776.8C90.7999 779.7 93.0999 783.5 93.9999 784.6C95.0999 786 95.0999 788.1 93.9999 789.6C92.8999 791 90.9999 791.5 89.1999 790.7C84.6999 788.6 80.0999 786.9 75.8999 785.4C73.1999 791.2 70.2999 797.3 67.3999 803.5C67.6999 804.5 67.6999 805.4 67.1999 806.2C66.6999 807.2 66.0999 808 65.0999 808.3C62.6999 813.7 60.0999 819.2 57.5999 824.8C57.5999 824.8 57.5999 825 57.3999 825C69.6999 836.1 85.3999 849.5 93.1999 855.9C94.7999 857.2 95.0999 859.4 93.9999 861.2C92.8999 863 90.5999 863.4 88.6999 862.5C74.5999 855 58.0999 847.1 48.9999 843.9C48.6999 844.5 48.3999 845.3 47.9999 846C54.6999 858.5 70.6999 881.9 82.3999 894.7C89.2999 902.4 84.5999 910.1 82.1999 914.1C81.7999 915 81.3999 915.7 81.0999 916.3ZM355.8 904.6C356.3 904.8 356.9 905.1 357.4 905.2C362 907.8 363 913.8 363.3 918.2C364.1 929.4 355 961.1 342.3 1002C356.4 998 376.2 991.3 402.6 980.5C441 964.8 493.1 967.7 506.7 968.6C510.5 956.1 525.1 907.7 538.2 862.2C522.2 876 512.9 891.7 505.7 904C500.9 912.2 497.1 918.6 492.7 921.8C483.7 928.2 470.3 925 443.9 918.4C431.9 915.4 416.9 911.7 398.5 908C387.3 905.9 373 904.8 355.8 904.6ZM316.6 1006.4C318.5 1007 324 1006.7 333.2 1004.5C343.1 972.3 356.2 929.9 355.3 919C354.8 913.4 353.5 912.4 353.4 912.4C351.8 911.6 346 914.5 342 916.6C337.8 918.7 333.2 921.1 328.2 922.5C327.6 922.7 326.1 923.5 324.2 927.5C314.8 946.9 314.7 999 316.6 1006.4ZM324.1 1049.3C323.8 1049.3 323.3 1049.3 323 1049.5C323.3 1049.3 323.8 1049.3 324.6 1049.3C324.4 1049.3 324.2 1049.3 324.1 1049.3ZM570.6 1111.6C573.2 1111.6 575.9 1111.6 578.6 1111.8C633.1 1112.8 635.2 1104 640.5 1082.5C643.4 1071.1 646.7 1056.9 658.3 1039.9C684.5 1001.1 698 915.4 713.6 816.3C717.6 790.7 721.8 764.1 726.4 737.2C749.8 600.4 721 563.6 689.5 537.5L684.5 533.3C680.2 529.8 675.1 525.5 669.1 520.6C664.1 517.2 646.9 505.1 629.8 492.7C613.3 480.7 603.4 472.8 597.5 467.4C595.7 466.3 594 465.2 592.4 464.2C588.9 467.4 586.3 470.6 585.5 473C583.7 478.9 576.4 489 567.7 500.7C558.7 512.9 548.5 526.8 545.3 535.6C539.1 552.7 534.3 579.5 534.3 579.8C534 581.4 532.7 582.8 531.1 583C529.5 583.2 527.7 582.5 526.9 581.1C512 554.8 469 485.5 449.5 480.5L445.3 479.5C434.4 476.8 427.4 475 423.9 477.1C421.2 478.9 419.3 483.8 417.5 493.4C412.4 520.8 397.3 561.3 385.2 587.3C381.2 595.8 378 604.1 375.4 612.6C376 613.9 376.5 615 377.2 616.1C387 636.8 395.3 654.5 395.3 665.6C395.3 681.5 379.6 692.2 363.1 703.6C361.3 704.7 359.7 706 358 707.1C355.9 720.6 353 733.5 346.8 745.9C345 749.6 343.1 753.1 341.5 756.3C338.6 761.7 336.1 766.7 333.7 772C337.7 782.7 342.7 797.1 345.7 817.2C351.1 853.9 351.1 876.3 345.7 880.3C345.1 880.8 344.1 881.1 343.3 881.1H316.1C314 881.1 312.3 879.5 312.1 877.4C311.9 876 308.9 841.4 313.7 810.8C316.3 794.5 320.3 782.6 325.1 771.9C324.9 771.6 324.9 771.4 324.8 771.1C318.2 754.1 314.1 742.9 325.6 725.9C331.8 716.8 341 709.4 350.6 702.7C351.1 698.9 351.7 694.9 352.2 690.7C353.2 683.5 354.1 676.1 355.4 668.3C358.3 651 361.3 632.3 367.1 613.4C354.6 586.7 341.7 557.5 342.6 534.3C344.2 493.5 339.4 440.9 339.4 440.3C339.2 439 339.9 437.6 340.8 436.8C341.9 436 343.2 435.7 344.5 436.2C362.1 441.8 381.4 447.4 393.1 450.3C373.6 433.3 326.7 392 323.5 383.8C322.1 380.4 324.1 378.5 324.6 378C327.8 375.4 330.8 377.8 341.1 385.2C346.9 389.4 360.9 399.8 366.9 401.1C366.1 400.3 365 399.5 364 398.7C356.6 392.5 343 380.8 328.6 357.2C315.3 335.6 301.6 289.9 292.6 244.3C291 247.7 289.2 251 287.5 254.6C270.1 288.2 274.9 307.3 281.1 331.2C283.7 341.3 286.5 352.7 288 366.1C292.5 407.7 321 418.3 322.1 418.8C323.2 419.1 324 419.9 324.5 421C325 422.1 325 423.2 324.5 424.2C324.3 424.4 319.1 436.5 311.9 452.7C312.1 452.7 312.4 452.5 312.5 452.5C325.5 448.3 332.5 448.3 335.2 452.5C337.9 456.5 335 461.6 320.3 483.3C311.2 496.8 297.6 516.9 297.6 523.7C297.6 538.3 294.6 561.7 294.4 562.6C294.1 564.4 292.6 565.8 290.9 566.1C289.1 566.3 287.4 565.1 286.7 563.4C286 561.7 272 519.8 286.9 488.3C290.1 481.6 293.3 474.5 296.5 467.6C291.4 469.8 285.8 472.7 279.5 475.9C268.8 481.5 259.3 485.4 250.2 488.9C235.8 494.7 222 500 204.8 512.4C187.2 525.2 157 603.9 137 655.9C122.9 692.6 115.4 712 111.1 716.8C107.7 720.6 95.0999 744.7 78.8999 778.8C80.2999 779.3 81.7999 779.9 83.1999 780.4C82.9999 778.6 83.1999 776.7 83.7999 774.8C85.5999 769.8 89.9999 766.5 97.3999 764.7C117.1 759.7 145.9 780.2 173.5 799.9L178.9 803.7C203.7 821.2 208.3 872.6 209.1 887.6L272.3 884.6C273.7 884.6 274.9 885.1 275.7 886.2C276.5 887.3 276.7 888.8 276.2 889.9C276.2 890.1 274.6 894.4 271.7 901.3C292.8 899.4 313.3 897.9 332 897.5C360.3 896.5 383.2 897.5 399.7 900.7C418.3 904.4 433.3 908.1 445.4 911.1C468 916.7 481.7 920.1 487.6 915.7C490.6 913.5 494.2 907.4 498.3 900.5C506.6 886.4 518.6 865.9 541.5 849.7C551.4 814.9 559.9 784.2 561.2 775.9C562.5 767.3 571.4 754.3 583.4 739.1C580 726.6 579.7 713.5 588.8 697.6C607.8 664.3 636.6 617.8 636.8 617.4C637.6 616 639.4 615.3 641 615.6C642.6 615.9 643.9 617.2 644.2 618.8C644.4 619.6 647.4 638.8 644.2 664.8C642.4 679.2 623.6 702.3 603.6 726.8C599.8 731.4 595.9 736.3 592.2 740.7C593.6 744.9 595.2 749.2 597.2 753.7C601.2 763.8 605.7 775.2 607.4 788.6C611.6 820.3 599.4 826.6 575.2 839.2C568.6 842.7 561.1 846.6 552.6 851.7C551.2 852.7 549.7 853.5 548.3 854.4C533 908 514.3 969.8 513 974.2C512.5 976 510.6 977.2 508.8 977.1C508.2 977.1 446.9 971 405.1 988C389.9 994.2 361 1005.5 339 1011.1C334.4 1026.2 329.2 1042.5 327.8 1049.4C344.1 1050.8 390.7 1059.2 406.3 1062.1C425.3 1065.6 488.8 1077.5 510.4 1084.7C529.2 1090.8 552.5 1102.1 570.6 1111.6ZM268.7 909.3C262.9 922.4 254.5 940.5 244.4 957.5C241.8 961.7 239.6 965.2 237.7 968.4C224.4 989.5 222.8 992.3 232.1 1029.7C238 1053.4 276.7 1060.3 317.8 1067.7C349.2 1073.3 381.6 1079.2 406.1 1092.8C446.7 1115.4 473.4 1114.3 517.6 1112.5C528.3 1112 540 1111.5 553.1 1111.4C538.2 1104 521.7 1096.5 508.5 1092C475.2 1080.9 336.7 1056.9 325.2 1056.9C325 1056.9 325 1056.9 325 1056.9C323.6 1057.2 322.1 1056.7 321.2 1055.8C318.6 1053.4 318.3 1052.9 330.6 1013C322.8 1014.4 316.5 1014.9 313.2 1013.5C310.8 1012.5 309.8 1010.9 309.4 1009.7C306 1001.2 307.3 944.7 317.4 924C320 918.9 322.8 915.8 326.5 914.7C330.7 913.4 334.8 911.3 338.8 909.3C342.6 907.2 346.3 905.5 349.7 904.7C344.4 904.7 338.8 904.9 333.1 905C313.1 905.6 291.3 907.2 268.7 909.3ZM594.9 1134.2C594.9 1134.2 583.2 1127.3 568.5 1119.6C549.1 1119.4 532.7 1120.1 518 1120.7C495.3 1121.7 477.4 1122.3 459.5 1119.9C440.1 1117.3 422.4 1111.1 402.4 1099.9C379 1086.9 347.2 1081.2 316.5 1075.7C272.8 1067.9 231.6 1060.5 224.4 1031.7C214.5 992.1 216.6 987.2 231 964.3C232.9 961.1 235.2 957.6 237.7 953.6C246.7 938.5 254.3 922.7 259.8 910.4C241.6 912.2 223.2 914.1 204.8 916C181.3 918.4 157 921 134.3 922.9C83.5999 927.1 76.6999 925.3 73.6999 920.7C71.4999 917.2 73.6999 913.5 75.4999 910.6C78.3999 906 79.1999 903.7 76.5999 900.8C66.9999 890.1 52.7999 870.2 44.2999 855.8C23.1999 904.8 10.0999 940.7 8.49988 954.6C3.99988 992.1 30.6999 1029.2 48.5999 1044C60.3999 1053.6 125.5 1048.6 163.9 1043.2C166.1 1042.9 168.1 1044.3 168.4 1046.6C168.4 1046.8 171.6 1067.4 176.4 1086.3C181.5 1106.8 169.4 1134.2 169.4 1134.2H161.1C164 1128.1 172.3 1102.6 168.6 1088.2C165.1 1073.9 162.4 1058.7 161.2 1051.7C140.6 1054.4 60.5999 1064.2 43.5999 1050.3C24.3999 1034.6 -4.20012 994.4 0.599885 953.9C2.69988 936.8 19.7999 893 39.5999 847.2C38.4999 844.8 37.6999 842.9 37.3999 841.4C36.8999 839.3 37.6999 837.4 39.2999 836.3C40.0999 835.8 41.1999 834.9 44.6999 835.5C45.7999 832.9 46.8999 830.5 48.0999 828C41.8999 822.1 36.6999 816.9 34.7999 814.1C32.3999 810.4 33.3999 807.7 34.1999 806.3C36.8999 801.8 45.9999 800.9 54.4999 801C51.4999 796.5 48.3999 790.3 48.3999 783.2C48.3999 780.2 49.6999 777.8 52.0999 776.3C56.2999 773.6 63.8999 774.5 71.5999 776.6C87.7999 742.6 101.2 716.4 105.4 711.7C108.9 707.7 119 681.3 129.9 653.2C152.6 593.9 180.9 520.1 200.6 506C218.7 492.9 232.9 487.4 247.8 481.5C256.8 478 266 474.3 276.3 468.8C285.3 464 294.1 460 301.9 456.6C308.1 442.7 313.6 430.5 316.1 424.6C306.8 420 284.6 404.7 280.6 366.9C279.2 354.1 276.6 343.4 273.9 333.1C267.7 308.6 262.2 287.3 280.9 250.9C284.4 244.2 287.6 237.4 290.7 230.9C283.8 190.5 281.3 151.8 287 131.6C299.3 88.5 325.2 35.7 353.1 21.9C379.3 8.8 409.2 -3.1 432 9.1C437.9 12.3 442.1 15.2 444.8 18.2C462.4 9.4 483.7 2 500 2C546.7 2 595 60 598.4 105C600.8 136.7 610.9 153.9 621.4 172C624.8 177.8 628.3 183.7 631.5 190.1C643 213.2 642.1 275.6 641.6 305.7C641.6 310.2 641.4 314 641.4 316.8C641.4 322.6 640.8 328.8 640 335.5C637.9 354.2 635.2 377.6 644.5 410.1C645 412 645.8 413.9 646.6 416C650.1 425.5 655.1 438.6 651.2 471.3L676 516.3C680.5 520 685 523.7 689.4 527.4L694.4 531.6C710.7 545.1 728.5 563.3 737.1 597.6C745.6 631.1 744.6 677.2 734.2 738.9C729.6 765.8 725.4 792.2 721.4 817.9C705.6 918 692 1004.5 664.8 1044.9C654.1 1060.8 650.7 1074.2 648.2 1084.9C642.3 1109.1 637.2 1120.3 585.8 1120.3C591.4 1123.3 609.5 1134.1 609.5 1134.1L594.9 1134.2Z" fill="#330033"/>
<path d="M171.5 806.4C170.2 806.4 168.9 805.8 168.1 804.6C166.8 802.8 167.3 800.3 169.1 799C173.1 796.3 177.7 792.9 178.9 792C179.9 790.6 182.6 784.2 184.5 778.9C185.3 776.8 187.5 775.9 189.6 776.5C191.7 777.3 192.6 779.5 192 781.6C188.6 790.6 186.1 796 184.6 797.5C182.8 799.3 175.8 804.2 173.7 805.7C173.1 806.3 172.3 806.4 171.5 806.4Z" fill="#330033"/>
<path d="M206.4 761.2C209.2 762.6 211.7 765.4 213.2 768.2C214.8 771.4 215.5 774.8 215.2 778.2C215 780.1 214.8 781.3 214.1 783.1C213.8 783.7 213.6 784.8 212.9 785.2C212.9 785.2 213 785.2 213.1 785.2C212.7 785.3 212.2 784.9 211.9 784.7C208.2 782.7 205.4 779.4 204 775.4C202.5 771.1 203 765.8 205.4 761.7C206.1 760.6 206.1 759.1 205.2 758.1C204.4 757.1 202.8 756.7 201.6 757.3C196.3 760.2 190.9 762.7 185.3 765C184.1 765.5 182.7 766 181.5 766.4C180.7 766.6 180 767 179.2 767.2C179.2 767.2 178.3 767.4 178.4 767.4C177.9 767.3 177.1 766 176.8 765.5C176.1 764.3 175.4 763 175 761.6C174.6 760.5 174.4 759.2 174.2 758C174.1 757.2 174 756.2 174.4 755.5C174.9 754.7 175.8 754.3 176.5 753.9C177 753.6 177.3 753.4 177.8 753.3C178.1 753.1 178.3 753.1 178.6 753C178.7 753 179.5 752.6 179.1 752.8C182.8 751.6 186.6 751.7 190.2 752.8C192.5 753.5 194 754.3 196 755.7C197.5 756.8 199.2 758.6 200.1 760C201.9 759.2 203.7 758.2 205.5 757.4C201.7 751.4 196 747.3 191.9 741.5C190.1 739 188.6 736 188.4 732.9C188.2 730.3 189 728.3 190.5 726.4C190.2 726.8 190.8 726 190.8 726C191 725.9 191.1 725.6 191.3 725.5C191.7 725.1 192.2 724.7 192.6 724.4C192.1 724.7 193 724.2 193 724.2C193.3 724 193.6 723.9 193.8 723.7C194.1 723.5 194.4 723.5 194.6 723.3C194.8 723.3 195 723.1 195.2 723.1C194.9 723.2 195 723.1 195.3 723.1C197.5 722.5 199.4 722.4 201.4 723.1C205.9 724.6 208.7 729.1 209.2 734C209.3 735 209.3 736.5 208.9 737.8C208.9 738.1 208.4 739.3 208.2 740C207.9 740.8 207.6 741.4 207.2 742.2C205.4 745.3 203 747.9 200.6 750.4C199.5 751.6 199.1 753.3 200.3 754.6C201.3 755.8 203.3 756 204.5 754.9C209.9 750.5 215.4 746 221.4 742.5C224.3 740.8 227.4 739.4 230.7 738.4C233 737.8 236.5 736.5 238.2 738.3C240 740.1 240.2 742.8 239.8 745.1C239.5 747.4 238.3 749.8 236.7 751.8C232.8 756.7 225.9 758.3 219.9 758.8C216.7 759.1 213.2 759.1 210.1 758.5C209.4 758.3 207.4 757.8 206.8 757.4C206.6 757.2 206.2 757.1 206 756.9C205.9 756.8 205.1 756.2 205.3 756.4C204.8 755.9 204.4 755.3 204.1 755C203.3 753.6 201.6 752.9 200.1 753.6C198.7 754.3 197.9 756.2 198.7 757.6C202.3 764 209.9 765.1 216.6 764.9C224.7 764.8 233.6 763.5 239.6 757.7C244.9 752.7 247.7 744.8 244.9 737.9C243.4 734 239.9 731.4 235.8 731.5C231.8 731.6 227.5 733 223.9 734.6C215.3 738.3 207.9 744.4 200.7 750.2C202 751.7 203.3 753.3 204.6 754.8C209.6 749.5 215.1 743.4 215.3 735.6C215.5 729.1 212.4 722.1 206.6 718.7C200.9 715.3 193.9 716.1 188.5 719.8C186 721.6 183.9 724.2 183 727.1C181.8 731 182.3 735.2 183.8 738.8C185.5 743.1 188.4 746.6 191.4 749.8C194.4 752.9 197.7 755.9 199.9 759.6C200.8 761 202.3 761.8 203.9 761C205.2 760.4 206.2 758.3 205.3 757C199.9 747.9 188.2 743.4 177.9 746.5C175.2 747.3 172.4 748.5 170.4 750.5C167.8 753.2 167.8 756.8 168.5 760.2C169.2 763.7 170.7 767 172.8 769.9C173.7 771.2 175 772.3 176.5 772.8C178.4 773.4 180.3 772.8 182.2 772.2C189.8 769.6 197.1 766.4 204.1 762.5C202.8 761 201.6 759.6 200.3 758.1C197.3 763.3 196.1 769.6 197.7 775.6C199.2 781.2 202.8 786.2 207.8 789.2C210.7 790.9 214.1 792.1 216.9 789.4C218.8 787.5 219.8 784.8 220.5 782.3C221.7 777.3 221.2 772.2 219.3 767.5C217.2 762.3 213.3 758 208.3 755.5C206.8 754.8 204.9 755.9 204.5 757.3C204 759.1 205 760.5 206.4 761.2Z" fill="#330033"/>
</svg>
